<?xml version="1.0" standalone="no"?>
<!DOCTYPE svg PUBLIC "-//W3C//DTD SVG 20010904//EN"
 "http://www.w3.org/TR/2001/REC-SVG-20010904/DTD/svg10.dtd">
<svg version="1.0" xmlns="http://www.w3.org/2000/svg"
 width="665.000000pt" height="375.000000pt" viewBox="0 0 665.000000 375.000000"
 preserveAspectRatio="xMidYMid meet">

<g transform="translate(0.000000,375.000000) scale(0.100000,-0.100000)"
fill="#000000" stroke="none">
<path d="M2970 2605 c0 -83 4 -135 10 -135 6 0 10 6 11 13 4 76 48 92 50 19
l2 -37 6 40 c5 31 10 40 26 40 15 0 21 -8 25 -34 3 -19 11 -36 18 -39 9 -3 12
28 12 132 l0 136 -80 0 -80 0 0 -135z m60 85 c0 -11 -7 -20 -15 -20 -8 0 -15
9 -15 20 0 11 7 20 15 20 8 0 15 -9 15 -20z m70 0 c0 -11 -7 -20 -15 -20 -8 0
-15 9 -15 20 0 11 7 20 15 20 8 0 15 -9 15 -20z m-70 -86 c0 -31 -23 -28 -28
4 -2 15 2 22 12 22 11 0 16 -9 16 -26z m70 1 c0 -16 -6 -25 -15 -25 -9 0 -15
9 -15 25 0 16 6 25 15 25 9 0 15 -9 15 -25z"/>
<path d="M3190 2600 l0 -110 375 0 375 0 0 -35 c0 -24 5 -35 15 -35 11 0 15
11 15 36 0 28 3 35 18 32 12 -2 17 -13 17 -36 0 -22 4 -32 15 -32 12 0 16 9
16 33 -1 26 3 33 22 35 19 3 22 -1 22 -33 0 -46 24 -43 28 3 l3 31 107 3 c102
3 107 4 110 26 l3 22 -415 0 -416 0 0 85 0 85 -155 0 -155 0 0 -110z m60 55
c0 -16 -6 -25 -15 -25 -9 0 -15 9 -15 25 0 16 6 25 15 25 9 0 15 -9 15 -25z
m90 0 c0 -16 -6 -25 -15 -25 -9 0 -15 9 -15 25 0 16 6 25 15 25 9 0 15 -9 15
-25z m90 0 c0 -16 -6 -25 -15 -25 -9 0 -15 9 -15 25 0 16 6 25 15 25 9 0 15
-9 15 -25z m-180 -80 c0 -16 -6 -25 -15 -25 -9 0 -15 9 -15 25 0 16 6 25 15
25 9 0 15 -9 15 -25z m88 0 c-2 -14 -7 -26 -13 -26 -5 0 -11 12 -13 26 -2 18
1 25 13 25 12 0 15 -7 13 -25z m96 16 c9 -14 -4 -41 -20 -41 -8 0 -14 10 -14
25 0 25 23 35 34 16z"/>
<path d="M3531 2358 l-54 -21 26 -14 27 -14 0 -279 c0 -240 -2 -281 -16 -294
-8 -9 -23 -16 -31 -16 -9 0 -14 -2 -11 -5 8 -8 208 -14 208 -7 0 4 -13 13 -30
19 l-30 11 0 321 c0 365 8 337 -89 299z"/>
<path d="M4404 2330 c-31 -12 -89 -85 -102 -128 -38 -127 -36 -311 6 -405 27
-60 83 -107 129 -107 54 0 113 65 137 149 24 87 24 273 0 313 -4 7 -3 8 4 4 7
-4 12 -1 12 9 0 11 -5 15 -15 11 -12 -4 -13 -2 -4 12 9 14 6 29 -14 69 -35 69
-94 97 -153 73z m71 -10 c4 -6 9 -8 13 -6 4 2 13 -2 20 -10 8 -8 9 -14 2 -14
-7 0 -6 -8 3 -22 10 -17 13 -67 12 -193 -2 -273 -37 -391 -106 -355 -29 16
-46 58 -58 144 -27 196 -1 423 53 458 16 11 54 10 61 -2z"/>
<path d="M1630 2317 c14 -6 28 -16 32 -22 4 -5 8 -129 8 -275 0 -146 -4 -270
-8 -275 -4 -6 -18 -16 -32 -22 -21 -10 -5 -12 90 -11 88 0 107 2 83 9 -41 12
-45 25 -41 169 l3 115 145 0 145 0 3 -105 c4 -128 -3 -170 -26 -170 -9 0 -24
-5 -32 -10 -10 -7 22 -9 100 -9 86 0 108 3 89 10 -15 6 -30 20 -33 32 -8 30
-8 511 0 532 4 10 21 23 38 31 28 12 20 13 -89 13 l-120 0 35 -17 35 -17 0
-135 0 -135 -145 0 -145 0 -3 120 c-3 144 0 160 35 173 22 8 3 10 -82 11 -91
0 -106 -2 -85 -12z"/>
<path d="M4118 2263 c-25 -38 -58 -90 -73 -118 -15 -27 -32 -57 -39 -65 -7 -8
-32 -49 -57 -90 -24 -41 -47 -76 -51 -78 -5 -2 -8 -17 -8 -33 l0 -29 99 0 c55
0 102 -3 104 -8 3 -4 3 -29 0 -56 -5 -42 -10 -50 -34 -60 -16 -6 -29 -14 -29
-18 0 -10 184 -11 193 -1 4 4 -6 12 -23 19 -28 12 -30 16 -30 69 0 52 1 55 25
55 20 0 25 5 25 25 0 20 -5 25 -25 25 l-25 0 0 100 c0 73 -3 100 -13 100 -20
0 -57 -81 -57 -127 0 -70 -3 -73 -86 -73 -73 0 -73 0 -65 23 5 13 35 63 66
111 31 48 59 95 62 104 4 10 16 31 28 47 12 17 36 56 53 88 46 82 16 75 -40
-10z"/>
<path d="M4862 2301 c-12 -16 -44 -67 -72 -113 -28 -46 -79 -130 -115 -188
-36 -58 -65 -115 -65 -127 0 -22 3 -23 100 -23 l100 0 0 -56 c0 -53 -2 -56
-30 -67 -52 -20 -33 -27 65 -27 91 0 121 11 73 26 -32 9 -38 22 -38 77 0 44 2
47 25 47 20 0 25 5 25 25 0 20 -5 25 -25 25 -24 0 -24 1 -27 103 l-3 102 -29
-43 c-22 -33 -31 -59 -34 -103 l-4 -59 -75 0 c-67 0 -74 2 -69 17 6 15 98 171
161 273 68 111 83 140 71 140 -7 0 -22 -13 -34 -29z"/>
<path d="M2810 2222 c-31 -15 -35 -22 -38 -59 -3 -41 -4 -42 -45 -46 l-42 -4
43 -1 42 -2 0 -167 c0 -198 10 -232 71 -247 46 -11 79 -3 118 30 37 31 41 53
6 30 -27 -18 -62 -21 -85 -6 -12 8 -15 39 -15 182 l0 173 45 6 45 5 -45 5 -45
4 -3 58 c-2 31 -6 57 -10 57 -4 -1 -23 -9 -42 -18z"/>
<path d="M2365 2103 c-48 -25 -66 -45 -91 -98 -49 -104 -18 -223 75 -285 28
-19 49 -24 98 -25 52 0 68 4 104 30 127 89 126 308 -1 373 -53 26 -140 29
-185 5z m135 -21 c91 -91 58 -372 -43 -372 -64 0 -107 85 -107 214 0 91 14
140 47 166 36 28 69 25 103 -8z"/>
<path d="M3175 2104 c-16 -8 -38 -23 -49 -32 -32 -28 -66 -113 -66 -164 0 -60
37 -145 79 -180 60 -51 155 -50 221 2 50 39 53 59 4 30 -28 -18 -45 -21 -87
-17 -42 4 -56 10 -78 37 -30 36 -52 103 -47 145 l3 27 129 -1 129 -2 -6 42
c-7 52 -32 88 -78 111 -42 22 -114 23 -154 2z m93 0 c29 -8 52 -52 52 -99 l0
-35 -86 0 -86 0 7 36 c8 46 32 83 59 94 26 11 26 11 54 4z"/>
<path d="M2438 1523 c457 -2 1207 -2 1665 0 457 1 83 2 -833 2 -916 0 -1290
-1 -832 -2z"/>
<path d="M2080 1442 c60 -19 82 -128 35 -169 -29 -26 -27 -28 8 -12 50 23 63
109 25 153 -14 15 -37 28 -58 31 -26 4 -29 3 -10 -3z"/>
<path d="M2470 1440 c0 -5 5 -10 11 -10 5 0 7 5 4 10 -3 6 -8 10 -11 10 -2 0
-4 -4 -4 -10z"/>
<path d="M3668 1435 c-31 -18 -52 -73 -43 -115 8 -34 48 -70 79 -69 21 0 21 0
-1 9 -12 5 -29 22 -37 39 -42 81 9 165 80 132 49 -22 60 -116 19 -156 -28 -29
-24 -31 16 -8 63 37 59 136 -5 167 -42 20 -73 20 -108 1z"/>
<path d="M4388 1379 l-3 -72 -55 66 c-30 37 -59 67 -65 67 -6 0 -10 -38 -10
-95 0 -52 3 -95 8 -95 4 0 7 34 7 76 l0 77 43 -53 c23 -29 52 -65 64 -79 l21
-26 4 98 c2 55 0 101 -4 103 -4 3 -8 -28 -10 -67z"/>
<path d="M4697 1443 c-4 -3 -7 -48 -7 -100 0 -82 2 -93 18 -93 15 0 17 11 17
100 0 94 -7 115 -28 93z"/>
<path d="M4777 1436 c31 -14 63 -60 63 -91 0 -28 -29 -73 -51 -80 -11 -4 -18
-9 -16 -12 3 -2 21 3 40 12 42 20 62 61 53 110 -8 40 -35 62 -87 70 l-34 6 32
-15z"/>
<path d="M1670 1345 c0 -52 3 -95 8 -95 4 0 5 35 4 77 -4 72 -3 76 14 62 9 -8
39 -43 66 -78 l48 -64 0 37 c0 20 -4 35 -8 34 -5 -2 -32 25 -61 60 -28 34 -56
62 -61 62 -6 0 -10 -41 -10 -95z"/>
<path d="M1991 1414 c-37 -47 -23 -131 26 -153 39 -18 43 -13 12 18 -24 24
-29 38 -29 75 0 33 6 52 20 66 15 15 16 20 6 20 -8 0 -24 -12 -35 -26z"/>
<path d="M2390 1345 c0 -78 3 -95 15 -95 12 0 15 17 15 95 0 78 -3 95 -15 95
-12 0 -15 -17 -15 -95z"/>
<path d="M3388 1345 c-3 -85 -1 -95 15 -95 14 0 17 9 17 51 0 49 1 51 25 47
16 -3 25 -1 25 7 0 8 -9 10 -25 7 -23 -4 -25 -2 -25 37 0 29 -4 41 -14 41 -12
0 -15 -21 -18 -95z"/>
<path d="M3475 1430 c3 -5 8 -10 11 -10 2 0 4 5 4 10 0 6 -5 10 -11 10 -5 0
-7 -4 -4 -10z"/>
<path d="M3968 1358 c4 -87 12 -108 43 -108 18 0 18 1 -2 21 -18 18 -20 30
-17 95 2 61 0 74 -12 74 -12 0 -14 -14 -12 -82z"/>
<path d="M4086 1388 c9 -71 14 -73 14 -5 0 33 -4 57 -10 57 -7 0 -8 -19 -4
-52z"/>
<path d="M4081 1297 c-1 -19 -8 -31 -23 -37 -16 -6 -18 -9 -7 -9 24 -1 41 24
36 51 -4 20 -4 20 -6 -5z"/>
<path d="M4293 1153 c-8 -3 -13 -21 -12 -46 1 -23 3 -34 6 -24 2 9 13 17 23
17 9 0 24 7 31 16 11 14 10 18 -6 30 -20 15 -23 15 -42 7z m35 -26 c2 -10 -3
-17 -12 -17 -18 0 -29 16 -21 31 9 14 29 6 33 -14z"/>
<path d="M1969 1123 c-21 -60 -21 -59 -8 -45 7 6 21 12 30 12 10 0 20 -6 22
-12 4 -10 6 -10 6 0 1 14 -27 72 -35 72 -2 0 -9 -12 -15 -27z m26 -2 c3 -5 1
-12 -5 -16 -5 -3 -10 1 -10 9 0 18 6 21 15 7z"/>
<path d="M2172 1110 c-1 -36 1 -41 8 -22 12 28 50 30 50 2 0 -11 5 -20 11 -20
6 0 8 7 5 16 -3 9 -7 28 -7 42 -1 17 -3 21 -6 10 -3 -11 -14 -18 -28 -18 -14
0 -25 7 -28 18 -3 9 -5 -3 -5 -28z"/>
<path d="M2287 1144 c-12 -12 -8 -51 7 -64 18 -14 58 -10 64 8 3 11 0 11 -16
1 -27 -17 -54 -5 -50 23 4 27 45 38 60 16 8 -10 9 -10 5 2 -4 16 -57 26 -70
14z"/>
<path d="M2403 1143 c9 -2 25 -2 35 0 9 3 1 5 -18 5 -19 0 -27 -2 -17 -5z"/>
<path d="M2490 1110 c0 -37 2 -40 28 -39 23 2 24 2 5 6 -25 5 -31 28 -10 36
10 4 10 6 0 6 -22 2 -14 19 10 24 19 4 18 4 -5 6 -26 1 -28 -2 -28 -39z"/>
<path d="M2582 1113 c-2 -41 -1 -43 26 -42 22 1 23 2 5 6 -17 3 -23 13 -26 41
l-4 37 -1 -42z"/>
<path d="M2721 1115 c1 -40 1 -40 10 -10 5 18 5 33 -1 39 -7 7 -10 -4 -9 -29z"/>
<path d="M2780 1120 c-12 -30 -30 -41 -30 -18 0 6 -2 9 -5 6 -7 -7 5 -38 14
-38 4 0 14 12 21 28 l13 27 8 -25 c6 -22 7 -20 8 13 1 45 -12 48 -29 7z"/>
<path d="M2862 1137 c-6 -6 -13 -26 -16 -42 -3 -17 -3 -24 0 -17 7 14 54 16
54 2 0 -5 4 -10 9 -10 5 0 2 18 -6 40 -17 43 -24 47 -41 27z m28 -28 c0 -5 -7
-9 -15 -9 -15 0 -20 12 -9 23 8 8 24 -1 24 -14z"/>
<path d="M2947 1144 c-4 -4 -6 -19 -6 -33 1 -17 3 -20 6 -8 6 24 18 21 42 -10
l20 -28 1 24 c0 13 -3 22 -6 18 -3 -3 -16 6 -28 19 -12 14 -25 22 -29 18z"/>
<path d="M3065 1119 c-9 -17 -14 -36 -11 -42 3 -9 5 -9 5 1 1 15 51 16 51 0 0
-6 3 -9 6 -5 8 8 -15 77 -27 77 -4 0 -16 -14 -24 -31z m35 -10 c0 -5 -4 -9
-10 -9 -5 0 -10 7 -10 16 0 8 5 12 10 9 6 -3 10 -10 10 -16z"/>
<path d="M3154 1136 c-3 -8 -4 -25 -2 -38 2 -19 9 -23 38 -23 25 0 36 5 38 18
2 10 -3 17 -12 17 -10 0 -13 -6 -9 -16 4 -12 0 -15 -18 -12 -18 2 -24 9 -24
28 0 19 6 26 30 31 l30 7 -33 1 c-20 1 -35 -5 -38 -13z"/>
<path d="M3260 1110 c0 -39 1 -40 33 -39 29 2 29 2 5 6 -22 3 -26 9 -26 33 1
21 7 30 22 33 16 3 15 5 -6 6 -26 1 -28 -2 -28 -39z"/>
<path d="M3350 1110 c0 -40 0 -40 38 -38 36 1 36 1 5 5 -38 5 -45 29 -10 36
l22 4 -22 2 c-32 2 -29 19 5 24 25 4 25 4 -5 6 -32 1 -33 0 -33 -39z"/>
<path d="M3451 1108 c1 -40 2 -41 8 -13 l8 30 13 -27 c16 -34 26 -35 36 -5 l8
22 7 -25 c5 -20 7 -16 8 20 0 42 -1 44 -14 26 -8 -11 -15 -23 -15 -28 0 -17
-17 -7 -30 17 -20 37 -30 31 -29 -17z"/>
<path d="M3580 1110 c0 -39 1 -40 33 -39 30 2 30 2 5 6 -32 5 -36 17 -10 32
16 10 16 10 0 11 -26 0 -22 18 5 23 19 4 18 4 -5 6 -26 1 -28 -2 -28 -39z"/>
<path d="M3672 1108 c1 -41 1 -41 5 -8 l5 35 29 -35 28 -35 -1 45 c-1 30 -2
36 -5 17 l-4 -28 -20 26 c-29 36 -39 31 -37 -17z"/>
<path d="M3793 1143 c12 -3 17 -16 19 -41 l1 -37 4 35 c3 19 10 38 16 42 7 4
-4 7 -23 7 -19 -1 -27 -3 -17 -6z"/>
<path d="M3934 1136 c-3 -8 -4 -25 -2 -38 2 -18 10 -23 33 -25 28 -2 28 -1 5
5 -18 6 -25 15 -25 32 0 17 7 26 25 31 l25 7 -28 1 c-15 1 -30 -5 -33 -13z"/>
<path d="M4034 1136 c-11 -30 1 -61 24 -64 30 -4 52 14 52 43 0 34 -64 51 -76
21z m61 -6 c11 -18 -6 -50 -26 -50 -22 0 -34 22 -25 45 6 17 42 20 51 5z"/>
<path d="M4151 1108 c1 -38 2 -40 8 -14 l6 30 13 -29 c13 -29 14 -29 28 -10 8
10 15 24 15 29 1 6 5 -2 9 -19 7 -28 8 -27 9 13 1 50 -11 54 -30 10 l-13 -31
-15 31 c-20 44 -31 40 -30 -10z"/>
<path d="M4384 1115 c-18 -45 -18 -48 6 -33 16 10 24 10 40 0 24 -15 24 -14 5
32 -19 45 -32 46 -51 1z m36 -6 c0 -5 -4 -9 -10 -9 -5 0 -10 7 -10 16 0 8 5
12 10 9 6 -3 10 -10 10 -16z"/>
<path d="M4481 1108 c1 -39 2 -40 8 -13 6 29 7 30 21 9 29 -40 40 -38 39 8 -1
39 -2 40 -8 13 l-7 -30 -18 28 c-26 38 -36 34 -35 -15z"/>
<path d="M4594 1128 c9 -12 16 -32 17 -43 0 -14 2 -16 6 -5 3 8 15 27 25 43
11 15 15 27 9 27 -5 0 -15 -8 -20 -17 -10 -17 -12 -17 -25 0 -19 25 -30 21
-12 -5z"/>
</g>
</svg>
